<svg aria-roledescription="er" role="graphics-document document" viewBox="0 0 457.30279541015625 737" style="max-width: 457.303px; background-color: white;" xmlns:xlink="http://www.w3.org/1999/xlink" xmlns="http://www.w3.org/2000/svg" width="100%" id="my-svg"><style>#my-svg{font-family:"trebuchet ms",verdana,arial,sans-serif;font-size:16px;fill:#333;}#my-svg .error-icon{fill:#552222;}#my-svg .error-text{fill:#552222;stroke:#552222;}#my-svg .edge-thickness-normal{stroke-width:2px;}#my-svg .edge-thickness-thick{stroke-width:3.5px;}#my-svg .edge-pattern-solid{stroke-dasharray:0;}#my-svg .edge-pattern-dashed{stroke-dasharray:3;}#my-svg .edge-pattern-dotted{stroke-dasharray:2;}#my-svg .marker{fill:#333333;stroke:#333333;}#my-svg .marker.cross{stroke:#333333;}#my-svg svg{font-family:"trebuchet ms",verdana,arial,sans-serif;font-size:16px;}#my-svg .entityBox{fill:#ECECFF;stroke:#9370DB;}#my-svg .attributeBoxOdd{fill:#ffffff;stroke:#9370DB;}#my-svg .attributeBoxEven{fill:#f2f2f2;stroke:#9370DB;}#my-svg .relationshipLabelBox{fill:hsl(80, 100%, 96.2745098039%);opacity:0.7;background-color:hsl(80, 100%, 96.2745098039%);}#my-svg .relationshipLabelBox rect{opacity:0.5;}#my-svg .relationshipLine{stroke:#333333;}#my-svg .entityTitleText{text-anchor:middle;font-size:18px;fill:#333;}#my-svg #MD_PARENT_START{fill:#f5f5f5!important;stroke:#333333!important;stroke-width:1;}#my-svg #MD_PARENT_END{fill:#f5f5f5!important;stroke:#333333!important;stroke-width:1;}#my-svg :root{--mermaid-font-family:"trebuchet ms",verdana,arial,sans-serif;}</style><g/><defs><marker orient="auto" markerHeight="240" markerWidth="190" refY="7" refX="0" id="MD_PARENT_START"><path d="M 18,7 L9,13 L1,7 L9,1 Z"/></marker></defs><defs><marker orient="auto" markerHeight="28" markerWidth="20" refY="7" refX="19" id="MD_PARENT_END"><path d="M 18,7 L9,13 L1,7 L9,1 Z"/></marker></defs><defs><marker orient="auto" markerHeight="18" markerWidth="18" refY="9" refX="0" id="ONLY_ONE_START"><path d="M9,0 L9,18 M15,0 L15,18" fill="none" stroke="gray"/></marker></defs><defs><marker orient="auto" markerHeight="18" markerWidth="18" refY="9" refX="18" id="ONLY_ONE_END"><path d="M3,0 L3,18 M9,0 L9,18" fill="none" stroke="gray"/></marker></defs><defs><marker orient="auto" markerHeight="18" markerWidth="30" refY="9" refX="0" id="ZERO_OR_ONE_START"><circle r="6" cy="9" cx="21" fill="white" stroke="gray"/><path d="M9,0 L9,18" fill="none" stroke="gray"/></marker></defs><defs><marker orient="auto" markerHeight="18" markerWidth="30" refY="9" refX="30" id="ZERO_OR_ONE_END"><circle r="6" cy="9" cx="9" fill="white" stroke="gray"/><path d="M21,0 L21,18" fill="none" stroke="gray"/></marker></defs><defs><marker orient="auto" markerHeight="36" markerWidth="45" refY="18" refX="18" id="ONE_OR_MORE_START"><path d="M0,18 Q 18,0 36,18 Q 18,36 0,18 M42,9 L42,27" fill="none" stroke="gray"/></marker></defs><defs><marker orient="auto" markerHeight="36" markerWidth="45" refY="18" refX="27" id="ONE_OR_MORE_END"><path d="M3,9 L3,27 M9,18 Q27,0 45,18 Q27,36 9,18" fill="none" stroke="gray"/></marker></defs><defs><marker orient="auto" markerHeight="36" markerWidth="57" refY="18" refX="18" id="ZERO_OR_MORE_START"><circle r="6" cy="18" cx="48" fill="white" stroke="gray"/><path d="M0,18 Q18,0 36,18 Q18,36 0,18" fill="none" stroke="gray"/></marker></defs><defs><marker orient="auto" markerHeight="36" markerWidth="57" refY="18" refX="39" id="ZERO_OR_MORE_END"><circle r="6" cy="18" cx="9" fill="white" stroke="gray"/><path d="M21,18 Q39,0 57,18 Q39,36 21,18" fill="none" stroke="gray"/></marker></defs><path style="stroke: gray; fill: none;" marker-start="url(#ONLY_ONE_START)" marker-end="url(#ONE_OR_MORE_END)" d="M143.06960533405172,376L131.39996408045977,384.3333333333333C119.7303228268678,392.6666666666667,96.39104031968391,409.3333333333333,84.72139906609196,426C73.0517578125,442.6666666666667,73.0517578125,459.3333333333333,73.0517578125,467.6666666666667L73.0517578125,476" class="er relationshipLine"/><path style="stroke: gray; fill: none;" marker-start="url(#ONLY_ONE_START)" marker-end="url(#ONE_OR_MORE_END)" d="M206.08566810344828,376L217.75530935704023,384.3333333333333C229.42495061063218,392.6666666666667,252.76423311781608,409.3333333333333,264.4338743714081,426C276.103515625,442.6666666666667,276.103515625,459.3333333333333,276.103515625,467.6666666666667L276.103515625,476" class="er relationshipLine"/><path style="stroke: gray; fill: none;" marker-start="url(#ONLY_ONE_START)" marker-end="url(#ZERO_OR_MORE_END)" d="M230.3016117640904,551L220.1234109061105,559.3333333333334C209.94521004813058,567.6666666666666,189.58880833217077,584.3333333333334,179.41060747419087,601C169.23240661621094,617.6666666666666,169.23240661621094,634.3333333333334,169.23240661621094,642.6666666666666L169.23240661621094,651" class="er relationshipLine"/><path style="stroke: gray; fill: none;" marker-start="url(#ONLY_ONE_START)" marker-end="url(#ZERO_OR_MORE_END)" d="M321.9054194859096,551L332.0836203438895,559.3333333333334C342.2618212018694,567.6666666666666,362.6182229178292,584.3333333333334,372.79642377580916,601C382.97462463378906,617.6666666666666,382.97462463378906,634.3333333333334,382.97462463378906,642.6666666666666L382.97462463378906,651" class="er relationshipLine"/><path style="stroke: gray; fill: none;" marker-start="url(#ZERO_OR_ONE_START)" marker-end="url(#ONLY_ONE_END)" d="M99.57763671875,231L99.57763671875,239.33333333333334C99.57763671875,247.66666666666666,99.57763671875,264.3333333333333,108.1983263739224,281C116.81901602909483,297.6666666666667,134.06039533943965,314.3333333333333,142.68108499461206,322.6666666666667L151.30177464978448,331" class="er relationshipLine"/><path style="stroke: gray; fill: none;" marker-start="url(#ZERO_OR_ONE_START)" marker-end="url(#ONE_OR_MORE_END)" d="M197.85349878771552,65L206.47418844288794,73.33333333333333C215.09487809806035,81.66666666666667,232.3362574084052,98.33333333333333,240.9569470635776,120.5C249.57763671875,142.66666666666666,249.57763671875,170.33333333333334,249.57763671875,198C249.57763671875,225.66666666666666,249.57763671875,253.33333333333334,240.9569470635776,275.5C232.3362574084052,297.6666666666667,215.09487809806035,314.3333333333333,206.47418844288794,322.6666666666667L197.85349878771552,331" class="er relationshipLine"/><path style="stroke: gray; fill: none;" marker-start="url(#ZERO_OR_ONE_START)" marker-end="url(#ONE_OR_MORE_END)" d="M151.30177464978448,65L142.68108499461206,73.33333333333333C134.06039533943965,81.66666666666667,116.81901602909483,98.33333333333333,108.1983263739224,115C99.57763671875,131.66666666666666,99.57763671875,148.33333333333334,99.57763671875,156.66666666666666L99.57763671875,165" class="er relationshipLine"/><g transform="translate(121.79638671875,331 )" id="entity-WORKSPACE-6025abd4-8157-5bcd-9036-214f8e8153f2"><rect height="45" width="105.5625" y="0" x="0" class="er entityBox"/><text style="dominant-baseline: middle; text-anchor: middle; font-size: 12px;" transform="translate(52.78125,12)" y="0" x="0" id="text-entity-WORKSPACE-6025abd4-8157-5bcd-9036-214f8e8153f2" class="er entityLabel">WORKSPACE</text><rect height="21" width="52.953125" y="24" x="0" class="er attributeBoxOdd"/><text style="dominant-baseline: middle; font-size: 10.2px;" transform="translate(5,34.5)" y="0" x="0" id="text-entity-WORKSPACE-6025abd4-8157-5bcd-9036-214f8e8153f2-attr-1-type" class="er entityLabel">string</text><rect height="21" width="52.609375" y="24" x="52.953125" class="er attributeBoxOdd"/><text style="dominant-baseline: middle; font-size: 10.2px;" transform="translate(57.953125,34.5)" y="0" x="0" id="text-entity-WORKSPACE-6025abd4-8157-5bcd-9036-214f8e8153f2-attr-1-name" class="er entityLabel">name</text></g><g transform="translate(20,476 )" id="entity-REPOSITORY-699695b0-5603-5c09-89a1-ea5acd069f5b"><rect height="75" width="106.103515625" y="0" x="0" class="er entityBox"/><text style="dominant-baseline: middle; text-anchor: middle; font-size: 12px;" transform="translate(53.0517578125,37.5)" y="0" x="0" id="text-entity-REPOSITORY-699695b0-5603-5c09-89a1-ea5acd069f5b" class="er entityLabel">REPOSITORY</text></g><g transform="translate(226.103515625,476 )" id="entity-CHANNEL-6cb96bd1-e83a-59d1-94c7-50a2178d87d2"><rect height="75" width="100" y="0" x="0" class="er entityBox"/><text style="dominant-baseline: middle; text-anchor: middle; font-size: 12px;" transform="translate(50,37.5)" y="0" x="0" id="text-entity-CHANNEL-6cb96bd1-e83a-59d1-94c7-50a2178d87d2" class="er entityLabel">CHANNEL</text></g><g transform="translate(109.81834411621094,651 )" id="entity-SUBSCRIPTION-94f3d937-f8eb-5596-9824-f1f8ba9bed64"><rect height="66" width="118.828125" y="0" x="0" class="er entityBox"/><text style="dominant-baseline: middle; text-anchor: middle; font-size: 12px;" transform="translate(59.4140625,12)" y="0" x="0" id="text-entity-SUBSCRIPTION-94f3d937-f8eb-5596-9824-f1f8ba9bed64" class="er entityLabel">SUBSCRIPTION</text><rect height="21" width="48.828155517578125" y="24" x="0" class="er attributeBoxOdd"/><text style="dominant-baseline: middle; font-size: 10.2px;" transform="translate(5,34.5)" y="0" x="0" id="text-entity-SUBSCRIPTION-94f3d937-f8eb-5596-9824-f1f8ba9bed64-attr-1-type" class="er entityLabel">string[]</text><rect height="21" width="69.99996948242188" y="24" x="48.828155517578125" class="er attributeBoxOdd"/><text style="dominant-baseline: middle; font-size: 10.2px;" transform="translate(53.828155517578125,34.5)" y="0" x="0" id="text-entity-SUBSCRIPTION-94f3d937-f8eb-5596-9824-f1f8ba9bed64-attr-1-name" class="er entityLabel">subscribers</text><rect height="21" width="48.828155517578125" y="45" x="0" class="er attributeBoxEven"/><text style="dominant-baseline: middle; font-size: 10.2px;" transform="translate(5,55.5)" y="0" x="0" id="text-entity-SUBSCRIPTION-94f3d937-f8eb-5596-9824-f1f8ba9bed64-attr-2-type" class="er entityLabel">string</text><rect height="21" width="69.99996948242188" y="45" x="48.828155517578125" class="er attributeBoxEven"/><text style="dominant-baseline: middle; font-size: 10.2px;" transform="translate(53.828155517578125,55.5)" y="0" x="0" id="text-entity-SUBSCRIPTION-94f3d937-f8eb-5596-9824-f1f8ba9bed64-attr-2-name" class="er entityLabel">filter</text></g><g transform="translate(328.64646911621094,651 )" id="entity-INVITATION-b99c1422-262d-5153-af22-87197e32c6e2"><rect height="66" width="108.65631103515625" y="0" x="0" class="er entityBox"/><text style="dominant-baseline: middle; text-anchor: middle; font-size: 12px;" transform="translate(54.328155517578125,12)" y="0" x="0" id="text-entity-INVITATION-b99c1422-262d-5153-af22-87197e32c6e2" class="er entityLabel">INVITATION</text><rect height="21" width="47.21881103515625" y="24" x="0" class="er attributeBoxOdd"/><text style="dominant-baseline: middle; font-size: 10.2px;" transform="translate(5,34.5)" y="0" x="0" id="text-entity-INVITATION-b99c1422-262d-5153-af22-87197e32c6e2-attr-1-type" class="er entityLabel">string[]</text><rect height="21" width="61.4375" y="24" x="47.21881103515625" class="er attributeBoxOdd"/><text style="dominant-baseline: middle; font-size: 10.2px;" transform="translate(52.21881103515625,34.5)" y="0" x="0" id="text-entity-INVITATION-b99c1422-262d-5153-af22-87197e32c6e2-attr-1-name" class="er entityLabel">recipients</text><rect height="21" width="47.21881103515625" y="45" x="0" class="er attributeBoxEven"/><text style="dominant-baseline: middle; font-size: 10.2px;" transform="translate(5,55.5)" y="0" x="0" id="text-entity-INVITATION-b99c1422-262d-5153-af22-87197e32c6e2-attr-2-type" class="er entityLabel">date</text><rect height="21" width="61.4375" y="45" x="47.21881103515625" class="er attributeBoxEven"/><text style="dominant-baseline: middle; font-size: 10.2px;" transform="translate(52.21881103515625,55.5)" y="0" x="0" id="text-entity-INVITATION-b99c1422-262d-5153-af22-87197e32c6e2-attr-2-name" class="er entityLabel">expiresOn</text></g><g transform="translate(49.57763671875,165 )" id="entity-USER-6e7e2962-0c6f-577d-a7fd-2ce3a0cfd2c8"><rect height="66" width="100" y="0" x="0" class="er entityBox"/><text style="dominant-baseline: middle; text-anchor: middle; font-size: 12px;" transform="translate(50,12)" y="0" x="0" id="text-entity-USER-6e7e2962-0c6f-577d-a7fd-2ce3a0cfd2c8" class="er entityLabel">USER</text><rect height="21" width="50.171875" y="24" x="0" class="er attributeBoxOdd"/><text style="dominant-baseline: middle; font-size: 10.2px;" transform="translate(5,34.5)" y="0" x="0" id="text-entity-USER-6e7e2962-0c6f-577d-a7fd-2ce3a0cfd2c8-attr-1-type" class="er entityLabel">string</text><rect height="21" width="49.828125" y="24" x="50.171875" class="er attributeBoxOdd"/><text style="dominant-baseline: middle; font-size: 10.2px;" transform="translate(55.171875,34.5)" y="0" x="0" id="text-entity-USER-6e7e2962-0c6f-577d-a7fd-2ce3a0cfd2c8-attr-1-name" class="er entityLabel">email</text><rect height="21" width="50.171875" y="45" x="0" class="er attributeBoxEven"/><text style="dominant-baseline: middle; font-size: 10.2px;" transform="translate(5,55.5)" y="0" x="0" id="text-entity-USER-6e7e2962-0c6f-577d-a7fd-2ce3a0cfd2c8-attr-2-type" class="er entityLabel">string</text><rect height="21" width="49.828125" y="45" x="50.171875" class="er attributeBoxEven"/><text style="dominant-baseline: middle; font-size: 10.2px;" transform="translate(55.171875,55.5)" y="0" x="0" id="text-entity-USER-6e7e2962-0c6f-577d-a7fd-2ce3a0cfd2c8-attr-2-name" class="er entityLabel">name</text></g><g transform="translate(124.57763671875,20 )" id="entity-TEAM-a64c3970-9275-559c-a729-8290a050bffc"><rect height="45" width="100" y="0" x="0" class="er entityBox"/><text style="dominant-baseline: middle; text-anchor: middle; font-size: 12px;" transform="translate(50,12)" y="0" x="0" id="text-entity-TEAM-a64c3970-9275-559c-a729-8290a050bffc" class="er entityLabel">TEAM</text><rect height="21" width="50.171875" y="24" x="0" class="er attributeBoxOdd"/><text style="dominant-baseline: middle; font-size: 10.2px;" transform="translate(5,34.5)" y="0" x="0" id="text-entity-TEAM-a64c3970-9275-559c-a729-8290a050bffc-attr-1-type" class="er entityLabel">string</text><rect height="21" width="49.828125" y="24" x="50.171875" class="er attributeBoxOdd"/><text style="dominant-baseline: middle; font-size: 10.2px;" transform="translate(55.171875,34.5)" y="0" x="0" id="text-entity-TEAM-a64c3970-9275-559c-a729-8290a050bffc-attr-1-name" class="er entityLabel">name</text></g><rect height="14" width="50.796875" y="409.426513671875" x="67.20077514648438" class="er relationshipLabelBox"/><text style="text-anchor: middle; dominant-baseline: middle; font-size: 12px;" y="416.426513671875" x="92.59921264648438" id="rel1" class="er relationshipLabel">contains</text><rect height="14" width="50.796875" y="409.4264831542969" x="231.15762329101562" class="er relationshipLabelBox"/><text style="text-anchor: middle; dominant-baseline: middle; font-size: 12px;" y="416.4264831542969" x="256.5560607910156" id="rel2" class="er relationshipLabel">contains</text><rect height="14" width="21.21875" y="585.887451171875" x="174.5006103515625" class="er relationshipLabelBox"/><text style="text-anchor: middle; dominant-baseline: middle; font-size: 12px;" y="592.887451171875" x="185.1099853515625" id="rel3" class="er relationshipLabel">has</text><rect height="14" width="21.21875" y="585.887451171875" x="356.4876708984375" class="er relationshipLabelBox"/><text style="text-anchor: middle; dominant-baseline: middle; font-size: 12px;" y="592.887451171875" x="367.0970458984375" id="rel4" class="er relationshipLabel">has</text><rect height="14" width="21.21875" y="280.4744873046875" x="101.34591674804688" class="er relationshipLabelBox"/><text style="text-anchor: middle; dominant-baseline: middle; font-size: 12px;" y="287.4744873046875" x="111.95529174804688" id="rel5" class="er relationshipLabel">has</text><rect height="14" width="21.21875" y="191.00001525878906" x="238.96826171875" class="er relationshipLabelBox"/><text style="text-anchor: middle; dominant-baseline: middle; font-size: 12px;" y="198.00001525878906" x="249.57763671875" id="rel6" class="er relationshipLabel">has</text><rect height="14" width="50.796875" y="101.525390625" x="86.55667877197266" class="er relationshipLabelBox"/><text style="text-anchor: middle; dominant-baseline: middle; font-size: 12px;" y="108.525390625" x="111.95511627197266" id="rel7" class="er relationshipLabel">contains</text></svg>