<svg aria-roledescription="er" role="graphics-document document" viewBox="-22.03290557861328 0 595.620849609375 707" style="max-width: 595.621px; background-color: white;" xmlns:xlink="http://www.w3.org/1999/xlink" xmlns="http://www.w3.org/2000/svg" width="100%" id="my-svg"><style>#my-svg{font-family:"trebuchet ms",verdana,arial,sans-serif;font-size:16px;fill:#333;}#my-svg .error-icon{fill:#552222;}#my-svg .error-text{fill:#552222;stroke:#552222;}#my-svg .edge-thickness-normal{stroke-width:2px;}#my-svg .edge-thickness-thick{stroke-width:3.5px;}#my-svg .edge-pattern-solid{stroke-dasharray:0;}#my-svg .edge-pattern-dashed{stroke-dasharray:3;}#my-svg .edge-pattern-dotted{stroke-dasharray:2;}#my-svg .marker{fill:#333333;stroke:#333333;}#my-svg .marker.cross{stroke:#333333;}#my-svg svg{font-family:"trebuchet ms",verdana,arial,sans-serif;font-size:16px;}#my-svg .entityBox{fill:#ECECFF;stroke:#9370DB;}#my-svg .attributeBoxOdd{fill:#ffffff;stroke:#9370DB;}#my-svg .attributeBoxEven{fill:#f2f2f2;stroke:#9370DB;}#my-svg .relationshipLabelBox{fill:hsl(80, 100%, 96.2745098039%);opacity:0.7;background-color:hsl(80, 100%, 96.2745098039%);}#my-svg .relationshipLabelBox rect{opacity:0.5;}#my-svg .relationshipLine{stroke:#333333;}#my-svg .entityTitleText{text-anchor:middle;font-size:18px;fill:#333;}#my-svg #MD_PARENT_START{fill:#f5f5f5!important;stroke:#333333!important;stroke-width:1;}#my-svg #MD_PARENT_END{fill:#f5f5f5!important;stroke:#333333!important;stroke-width:1;}#my-svg :root{--mermaid-font-family:"trebuchet ms",verdana,arial,sans-serif;}</style><g/><defs><marker orient="auto" markerHeight="240" markerWidth="190" refY="7" refX="0" id="MD_PARENT_START"><path d="M 18,7 L9,13 L1,7 L9,1 Z"/></marker></defs><defs><marker orient="auto" markerHeight="28" markerWidth="20" refY="7" refX="19" id="MD_PARENT_END"><path d="M 18,7 L9,13 L1,7 L9,1 Z"/></marker></defs><defs><marker orient="auto" markerHeight="18" markerWidth="18" refY="9" refX="0" id="ONLY_ONE_START"><path d="M9,0 L9,18 M15,0 L15,18" fill="none" stroke="gray"/></marker></defs><defs><marker orient="auto" markerHeight="18" markerWidth="18" refY="9" refX="18" id="ONLY_ONE_END"><path d="M3,0 L3,18 M9,0 L9,18" fill="none" stroke="gray"/></marker></defs><defs><marker orient="auto" markerHeight="18" markerWidth="30" refY="9" refX="0" id="ZERO_OR_ONE_START"><circle r="6" cy="9" cx="21" fill="white" stroke="gray"/><path d="M9,0 L9,18" fill="none" stroke="gray"/></marker></defs><defs><marker orient="auto" markerHeight="18" markerWidth="30" refY="9" refX="30" id="ZERO_OR_ONE_END"><circle r="6" cy="9" cx="9" fill="white" stroke="gray"/><path d="M21,0 L21,18" fill="none" stroke="gray"/></marker></defs><defs><marker orient="auto" markerHeight="36" markerWidth="45" refY="18" refX="18" id="ONE_OR_MORE_START"><path d="M0,18 Q 18,0 36,18 Q 18,36 0,18 M42,9 L42,27" fill="none" stroke="gray"/></marker></defs><defs><marker orient="auto" markerHeight="36" markerWidth="45" refY="18" refX="27" id="ONE_OR_MORE_END"><path d="M3,9 L3,27 M9,18 Q27,0 45,18 Q27,36 9,18" fill="none" stroke="gray"/></marker></defs><defs><marker orient="auto" markerHeight="36" markerWidth="57" refY="18" refX="18" id="ZERO_OR_MORE_START"><circle r="6" cy="18" cx="48" fill="white" stroke="gray"/><path d="M0,18 Q18,0 36,18 Q18,36 0,18" fill="none" stroke="gray"/></marker></defs><defs><marker orient="auto" markerHeight="36" markerWidth="57" refY="18" refX="39" id="ZERO_OR_MORE_END"><circle r="6" cy="18" cx="9" fill="white" stroke="gray"/><path d="M21,18 Q39,0 57,18 Q39,36 21,18" fill="none" stroke="gray"/></marker></defs><path style="stroke: gray; fill: none;" marker-start="url(#ONLY_ONE_START)" marker-end="url(#ONE_OR_MORE_END)" d="M130.79859240301724,376L112.84078663793103,384.3333333333333C94.88298087284483,392.6666666666667,58.96736934267241,409.3333333333333,41.009563577586206,429.75C23.0517578125,450.1666666666667,23.0517578125,474.3333333333333,23.0517578125,498.5C23.0517578125,522.6666666666666,23.0517578125,546.8333333333334,29.126055001255022,569C35.200352190010044,591.1666666666666,47.34894656752008,611.3333333333334,53.4232437562751,621.4166666666666L59.497540945030124,631.5" class="er relationshipLine"/><path style="stroke: gray; fill: none;" marker-start="url(#ONLY_ONE_START)" marker-end="url(#ONE_OR_MORE_END)" d="M212.2535021551724,376L224.464181483477,384.3333333333333C236.67486081178163,392.6666666666667,261.0962194683908,409.3333333333333,273.3068987966954,426C285.517578125,442.6666666666667,285.517578125,459.3333333333333,285.517578125,467.6666666666667L285.517578125,476" class="er relationshipLine"/><path style="stroke: gray; fill: none;" marker-start="url(#ZERO_OR_MORE_START)" marker-end="url(#ZERO_OR_MORE_END)" d="M237.03150255926724,521L219.07369679418105,529.3333333333334C201.1158910290948,537.6666666666666,165.2002794989224,554.3333333333334,140.41096557228374,572.75C115.62165164564509,591.1666666666666,101.95863532254016,611.3333333333334,95.1271271609877,621.4166666666666L88.29561899943525,631.5" class="er relationshipLine"/><path style="stroke: gray; fill: none;" marker-start="url(#ONLY_ONE_START)" marker-end="url(#ZERO_OR_MORE_END)" d="M285.517578125,521L285.517578125,529.3333333333334C285.517578125,537.6666666666666,285.517578125,554.3333333333334,285.517578125,571C285.517578125,587.6666666666666,285.517578125,604.3333333333334,285.517578125,612.6666666666666L285.517578125,621" class="er relationshipLine"/><path style="stroke: gray; fill: none;" marker-start="url(#ONLY_ONE_START)" marker-end="url(#ZERO_OR_MORE_END)" d="M335.517578125,515.4596817775226L362.8079477945964,524.7164014812689C390.0983174641927,533.9731211850151,444.67905680338544,552.4865605925075,471.96942647298175,570.0766136295871C499.2597961425781,587.6666666666666,499.2597961425781,604.3333333333334,499.2597961425781,612.6666666666666L499.2597961425781,621" class="er relationshipLine"/><path style="stroke: gray; fill: none;" marker-start="url(#ZERO_OR_ONE_START)" marker-end="url(#ONLY_ONE_END)" d="M104.28466796875,231L104.28466796875,239.33333333333334C104.28466796875,247.66666666666666,104.28466796875,264.3333333333333,112.9053576239224,281C121.52604727909483,297.6666666666667,138.76742658943965,314.3333333333333,147.38811624461206,322.6666666666667L156.00880589978448,331" class="er relationshipLine"/><path style="stroke: gray; fill: none;" marker-start="url(#ZERO_OR_ONE_START)" marker-end="url(#ONLY_ONE_END)" d="M202.56053003771552,65L211.18121969288794,73.33333333333333C219.80190934806035,81.66666666666667,237.0432886584052,98.33333333333333,245.6639783135776,120.5C254.28466796875,142.66666666666666,254.28466796875,170.33333333333334,254.28466796875,198C254.28466796875,225.66666666666666,254.28466796875,253.33333333333334,245.6639783135776,275.5C237.0432886584052,297.6666666666667,219.80190934806035,314.3333333333333,211.18121969288794,322.6666666666667L202.56053003771552,331" class="er relationshipLine"/><path style="stroke: gray; fill: none;" marker-start="url(#ZERO_OR_ONE_START)" marker-end="url(#ONE_OR_MORE_END)" d="M156.00880589978448,65L147.38811624461206,73.33333333333333C138.76742658943965,81.66666666666667,121.52604727909483,98.33333333333333,112.9053576239224,115C104.28466796875,131.66666666666666,104.28466796875,148.33333333333334,104.28466796875,156.66666666666666L104.28466796875,165" class="er relationshipLine"/><g transform="translate(126.50341796875,331 )" id="entity-WORKSPACE-6025abd4-8157-5bcd-9036-214f8e8153f2"><rect height="45" width="105.5625" y="0" x="0" class="er entityBox"/><text style="dominant-baseline: middle; text-anchor: middle; font-size: 12px;" transform="translate(52.78125,12)" y="0" x="0" id="text-entity-WORKSPACE-6025abd4-8157-5bcd-9036-214f8e8153f2" class="er entityLabel">WORKSPACE</text><rect height="21" width="52.953125" y="24" x="0" class="er attributeBoxOdd"/><text style="dominant-baseline: middle; font-size: 10.2px;" transform="translate(5,34.5)" y="0" x="0" id="text-entity-WORKSPACE-6025abd4-8157-5bcd-9036-214f8e8153f2-attr-1-type" class="er entityLabel">string</text><rect height="21" width="52.609375" y="24" x="52.953125" class="er attributeBoxOdd"/><text style="dominant-baseline: middle; font-size: 10.2px;" transform="translate(57.953125,34.5)" y="0" x="0" id="text-entity-WORKSPACE-6025abd4-8157-5bcd-9036-214f8e8153f2-attr-1-name" class="er entityLabel">name</text></g><g transform="translate(20,631.5 )" id="entity-REPOSITORY-699695b0-5603-5c09-89a1-ea5acd069f5b"><rect height="45" width="106.103515625" y="0" x="0" class="er entityBox"/><text style="dominant-baseline: middle; text-anchor: middle; font-size: 12px;" transform="translate(53.0517578125,12)" y="0" x="0" id="text-entity-REPOSITORY-699695b0-5603-5c09-89a1-ea5acd069f5b" class="er entityLabel">REPOSITORY</text><rect height="21" width="56.2939453125" y="24" x="0" class="er attributeBoxOdd"/><text style="dominant-baseline: middle; font-size: 10.2px;" transform="translate(5,34.5)" y="0" x="0" id="text-entity-REPOSITORY-699695b0-5603-5c09-89a1-ea5acd069f5b-attr-1-type" class="er entityLabel">string</text><rect height="21" width="49.8095703125" y="24" x="56.2939453125" class="er attributeBoxOdd"/><text style="dominant-baseline: middle; font-size: 10.2px;" transform="translate(61.2939453125,34.5)" y="0" x="0" id="text-entity-REPOSITORY-699695b0-5603-5c09-89a1-ea5acd069f5b-attr-1-name" class="er entityLabel">type</text></g><g transform="translate(235.517578125,476 )" id="entity-CHANNEL-6cb96bd1-e83a-59d1-94c7-50a2178d87d2"><rect height="45" width="100" y="0" x="0" class="er entityBox"/><text style="dominant-baseline: middle; text-anchor: middle; font-size: 12px;" transform="translate(50,12)" y="0" x="0" id="text-entity-CHANNEL-6cb96bd1-e83a-59d1-94c7-50a2178d87d2" class="er entityLabel">CHANNEL</text><rect height="21" width="53.2421875" y="24" x="0" class="er attributeBoxOdd"/><text style="dominant-baseline: middle; font-size: 10.2px;" transform="translate(5,34.5)" y="0" x="0" id="text-entity-CHANNEL-6cb96bd1-e83a-59d1-94c7-50a2178d87d2-attr-1-type" class="er entityLabel">string</text><rect height="21" width="46.7578125" y="24" x="53.2421875" class="er attributeBoxOdd"/><text style="dominant-baseline: middle; font-size: 10.2px;" transform="translate(58.2421875,34.5)" y="0" x="0" id="text-entity-CHANNEL-6cb96bd1-e83a-59d1-94c7-50a2178d87d2-attr-1-name" class="er entityLabel">type</text></g><g transform="translate(226.103515625,621 )" id="entity-SUBSCRIPTION-94f3d937-f8eb-5596-9824-f1f8ba9bed64"><rect height="66" width="118.828125" y="0" x="0" class="er entityBox"/><text style="dominant-baseline: middle; text-anchor: middle; font-size: 12px;" transform="translate(59.4140625,12)" y="0" x="0" id="text-entity-SUBSCRIPTION-94f3d937-f8eb-5596-9824-f1f8ba9bed64" class="er entityLabel">SUBSCRIPTION</text><rect height="21" width="48.828155517578125" y="24" x="0" class="er attributeBoxOdd"/><text style="dominant-baseline: middle; font-size: 10.2px;" transform="translate(5,34.5)" y="0" x="0" id="text-entity-SUBSCRIPTION-94f3d937-f8eb-5596-9824-f1f8ba9bed64-attr-1-type" class="er entityLabel">string[]</text><rect height="21" width="69.99996948242188" y="24" x="48.828155517578125" class="er attributeBoxOdd"/><text style="dominant-baseline: middle; font-size: 10.2px;" transform="translate(53.828155517578125,34.5)" y="0" x="0" id="text-entity-SUBSCRIPTION-94f3d937-f8eb-5596-9824-f1f8ba9bed64-attr-1-name" class="er entityLabel">subscribers</text><rect height="21" width="48.828155517578125" y="45" x="0" class="er attributeBoxEven"/><text style="dominant-baseline: middle; font-size: 10.2px;" transform="translate(5,55.5)" y="0" x="0" id="text-entity-SUBSCRIPTION-94f3d937-f8eb-5596-9824-f1f8ba9bed64-attr-2-type" class="er entityLabel">string</text><rect height="21" width="69.99996948242188" y="45" x="48.828155517578125" class="er attributeBoxEven"/><text style="dominant-baseline: middle; font-size: 10.2px;" transform="translate(53.828155517578125,55.5)" y="0" x="0" id="text-entity-SUBSCRIPTION-94f3d937-f8eb-5596-9824-f1f8ba9bed64-attr-2-name" class="er entityLabel">filter</text></g><g transform="translate(444.931640625,621 )" id="entity-INVITATION-b99c1422-262d-5153-af22-87197e32c6e2"><rect height="66" width="108.65631103515625" y="0" x="0" class="er entityBox"/><text style="dominant-baseline: middle; text-anchor: middle; font-size: 12px;" transform="translate(54.328155517578125,12)" y="0" x="0" id="text-entity-INVITATION-b99c1422-262d-5153-af22-87197e32c6e2" class="er entityLabel">INVITATION</text><rect height="21" width="47.21881103515625" y="24" x="0" class="er attributeBoxOdd"/><text style="dominant-baseline: middle; font-size: 10.2px;" transform="translate(5,34.5)" y="0" x="0" id="text-entity-INVITATION-b99c1422-262d-5153-af22-87197e32c6e2-attr-1-type" class="er entityLabel">string[]</text><rect height="21" width="61.4375" y="24" x="47.21881103515625" class="er attributeBoxOdd"/><text style="dominant-baseline: middle; font-size: 10.2px;" transform="translate(52.21881103515625,34.5)" y="0" x="0" id="text-entity-INVITATION-b99c1422-262d-5153-af22-87197e32c6e2-attr-1-name" class="er entityLabel">recipients</text><rect height="21" width="47.21881103515625" y="45" x="0" class="er attributeBoxEven"/><text style="dominant-baseline: middle; font-size: 10.2px;" transform="translate(5,55.5)" y="0" x="0" id="text-entity-INVITATION-b99c1422-262d-5153-af22-87197e32c6e2-attr-2-type" class="er entityLabel">date</text><rect height="21" width="61.4375" y="45" x="47.21881103515625" class="er attributeBoxEven"/><text style="dominant-baseline: middle; font-size: 10.2px;" transform="translate(52.21881103515625,55.5)" y="0" x="0" id="text-entity-INVITATION-b99c1422-262d-5153-af22-87197e32c6e2-attr-2-name" class="er entityLabel">expiresOn</text></g><g transform="translate(54.28466796875,165 )" id="entity-USER-6e7e2962-0c6f-577d-a7fd-2ce3a0cfd2c8"><rect height="66" width="100" y="0" x="0" class="er entityBox"/><text style="dominant-baseline: middle; text-anchor: middle; font-size: 12px;" transform="translate(50,12)" y="0" x="0" id="text-entity-USER-6e7e2962-0c6f-577d-a7fd-2ce3a0cfd2c8" class="er entityLabel">USER</text><rect height="21" width="50.171875" y="24" x="0" class="er attributeBoxOdd"/><text style="dominant-baseline: middle; font-size: 10.2px;" transform="translate(5,34.5)" y="0" x="0" id="text-entity-USER-6e7e2962-0c6f-577d-a7fd-2ce3a0cfd2c8-attr-1-type" class="er entityLabel">string</text><rect height="21" width="49.828125" y="24" x="50.171875" class="er attributeBoxOdd"/><text style="dominant-baseline: middle; font-size: 10.2px;" transform="translate(55.171875,34.5)" y="0" x="0" id="text-entity-USER-6e7e2962-0c6f-577d-a7fd-2ce3a0cfd2c8-attr-1-name" class="er entityLabel">email</text><rect height="21" width="50.171875" y="45" x="0" class="er attributeBoxEven"/><text style="dominant-baseline: middle; font-size: 10.2px;" transform="translate(5,55.5)" y="0" x="0" id="text-entity-USER-6e7e2962-0c6f-577d-a7fd-2ce3a0cfd2c8-attr-2-type" class="er entityLabel">string</text><rect height="21" width="49.828125" y="45" x="50.171875" class="er attributeBoxEven"/><text style="dominant-baseline: middle; font-size: 10.2px;" transform="translate(55.171875,55.5)" y="0" x="0" id="text-entity-USER-6e7e2962-0c6f-577d-a7fd-2ce3a0cfd2c8-attr-2-name" class="er entityLabel">name</text></g><g transform="translate(129.28466796875,20 )" id="entity-TEAM-a64c3970-9275-559c-a729-8290a050bffc"><rect height="45" width="100" y="0" x="0" class="er entityBox"/><text style="dominant-baseline: middle; text-anchor: middle; font-size: 12px;" transform="translate(50,12)" y="0" x="0" id="text-entity-TEAM-a64c3970-9275-559c-a729-8290a050bffc" class="er entityLabel">TEAM</text><rect height="21" width="50.171875" y="24" x="0" class="er attributeBoxOdd"/><text style="dominant-baseline: middle; font-size: 10.2px;" transform="translate(5,34.5)" y="0" x="0" id="text-entity-TEAM-a64c3970-9275-559c-a729-8290a050bffc-attr-1-type" class="er entityLabel">string</text><rect height="21" width="49.828125" y="24" x="50.171875" class="er attributeBoxOdd"/><text style="dominant-baseline: middle; font-size: 10.2px;" transform="translate(55.171875,34.5)" y="0" x="0" id="text-entity-TEAM-a64c3970-9275-559c-a729-8290a050bffc-attr-1-name" class="er entityLabel">name</text></g><rect height="14" width="50.796875" y="472.7552185058594" x="-2.0329017639160156" class="er relationshipLabelBox"/><text style="text-anchor: middle; dominant-baseline: middle; font-size: 12px;" y="479.7552185058594" x="23.365535736083984" id="rel1" class="er relationshipLabel">contains</text><rect height="14" width="50.796875" y="408.9288024902344" x="239.17575073242188" class="er relationshipLabelBox"/><text style="text-anchor: middle; dominant-baseline: middle; font-size: 12px;" y="415.9288024902344" x="264.5741882324219" id="rel2" class="er relationshipLabel">contains</text><rect height="14" width="44.1875" y="557.036376953125" x="131.00656127929688" class="er relationshipLabelBox"/><text style="text-anchor: middle; dominant-baseline: middle; font-size: 12px;" y="564.036376953125" x="153.10031127929688" id="rel3" class="er relationshipLabel">notifies</text><rect height="14" width="21.21875" y="564" x="274.908203125" class="er relationshipLabelBox"/><text style="text-anchor: middle; dominant-baseline: middle; font-size: 12px;" y="571" x="285.517578125" id="rel4" class="er relationshipLabel">has</text><rect height="14" width="21.21875" y="543.8788452148438" x="423.0733947753906" class="er relationshipLabelBox"/><text style="text-anchor: middle; dominant-baseline: middle; font-size: 12px;" y="550.8788452148438" x="433.6827697753906" id="rel5" class="er relationshipLabel">has</text><rect height="14" width="21.21875" y="280.4744873046875" x="106.0529556274414" class="er relationshipLabelBox"/><text style="text-anchor: middle; dominant-baseline: middle; font-size: 12px;" y="287.4744873046875" x="116.6623306274414" id="rel6" class="er relationshipLabel">has</text><rect height="14" width="21.21875" y="191.00001525878906" x="243.67529296875" class="er relationshipLabelBox"/><text style="text-anchor: middle; dominant-baseline: middle; font-size: 12px;" y="198.00001525878906" x="254.28466796875" id="rel7" class="er relationshipLabel">has</text><rect height="14" width="50.796875" y="101.525390625" x="91.26371002197266" class="er relationshipLabelBox"/><text style="text-anchor: middle; dominant-baseline: middle; font-size: 12px;" y="108.525390625" x="116.66214752197266" id="rel8" class="er relationshipLabel">contains</text></svg>